<?xml version="1.0" encoding="utf-8"?>
<!-- Generator: Adobe Illustrator 18.1.0, SVG Export Plug-In . SVG Version: 6.00 Build 0)  -->
<!DOCTYPE svg PUBLIC "-//W3C//DTD SVG 1.1//EN" "http://www.w3.org/Graphics/SVG/1.1/DTD/svg11.dtd">
<svg version="1.1" id="Layer_1" xmlns="http://www.w3.org/2000/svg" xmlns:xlink="http://www.w3.org/1999/xlink" x="0px" y="0px"
	 viewBox="-300 1336.8 1072.4 217.6" enable-background="new -300 1336.8 1072.4 217.6" xml:space="preserve">
<path fill="#FFFFFF" d="M223.1,1480.4c3.7,2.9,7.4,4.8,11.2,5.8c3.8,1,8.3,1.4,13.5,1.4c11.7,0,23-2.6,33.9-7.8v21.2
	c-11.5,4.5-23.5,6.7-35.8,6.7c-18.5,0-32.6-5.4-42.2-16.2c-9.6-10.8-14.5-26.4-14.5-46.9c0-20.5,4.8-36.1,14.5-46.9
	c9.6-10.8,23.7-16.2,42.2-16.2c12.4,0,24.3,2.3,35.8,6.8v21.3c-11-5.4-22.2-8-33.5-8c-0.2,0-0.3,0-0.5,0c-11.2,0-20,2.9-26.3,8.7
	c-6.4,5.8-9.5,17.2-9.5,34.2c0,9,0.9,16.5,2.8,22.5C216.6,1473.1,219.4,1477.5,223.1,1480.4L223.1,1480.4z M375.9,1505.8v-72.9
	c0-12-2.5-20-7.6-24c-5.1-4-11.6-6-19.7-6c-9.9,0-20,2-30.1,5.9v97h-22.3v-169h22.3v50.9c10.4-4,21.2-6,32.2-6
	c15.2,0,27,4.5,35.3,13.6c8.4,9.1,12.6,21.9,12.6,38.6v72L375.9,1505.8L375.9,1505.8z M512.7,1475.9c-0.5,2.6-1.8,5.9-3.7,10
	c-2,4.1-4.6,7.6-7.9,10.6c-3.3,3-8.4,5.6-15.1,7.8c-6.7,2.2-14.4,3.3-23.2,3.3c-9,0-16.8-1.1-23.6-3.4c-6.8-2.3-11.8-4.9-15.3-8
	c-3.4-3-6.1-6.6-8.2-10.8c-2-4.2-3.3-7.6-3.8-10.3c-0.5-2.7-0.7-5.4-0.7-8c0-12.1,5.1-21.5,15.3-28.3c10.2-6.8,24.2-10.2,42.1-10.2
	c7.6,0,15,0.5,22.1,1.4c-0.5-10.3-3.3-17.7-8.4-22.1c-5.1-4.5-13.5-6.7-25.1-6.7c-10.6,0-21.8,2-33.7,6.1v-19.1
	c11.5-4.4,23.8-6.6,36.8-6.6c17,0,30.1,4.4,39.3,13.2c9.2,8.8,13.9,21.5,13.9,38v35.3C513.5,1470.7,513.2,1473.3,512.7,1475.9
	L512.7,1475.9z M490.7,1448c-5.9-0.9-12.9-1.5-21.2-1.5c-3.2,0-6.7,0.3-10.2,0.9c-3.6,0.6-7.4,1.5-11.5,2.8
	c-4.1,1.3-7.5,3.4-10.2,6.3c-2.7,2.9-4,6.4-4,10.5c0,13.8,9.7,20.7,29.2,20.7c0.1,0,0.2,0,0.4,0c18.4,0,27.6-6.6,27.6-19.9
	L490.7,1448L490.7,1448z M552.2,1407.3v98.4h-22.3v-112c20.3-8.1,40.1-12.2,59.3-12.2v20.6C577.1,1402.4,564.7,1404.1,552.2,1407.3
	L552.2,1407.3z M654.5,1487.6c0.1,0,0.2,0,0.2,0c5.6,0,10.3-1.2,14.2-3.6v20.3c-5.6,2.3-11.1,3.4-16.7,3.4c-0.2,0-0.4,0-0.6,0
	c-2.9,0-6.1-0.4-9.4-1.1c-3.3-0.7-7.3-2.1-12-4.2c-4.6-2.1-8.5-5.8-11.5-11c-3-5.2-4.5-11.7-4.5-19.4v-69.3H593v-19.1h21.2v-36.2
	h22.3v36.2h32.4v19.1h-32.4v70.7C636.5,1482.8,642.5,1487.6,654.5,1487.6L654.5,1487.6z M708.4,1425.9c4.3,2.3,9.4,4.3,15.5,6
	c6,1.7,12.1,3.8,18.1,6.2c6.1,2.4,11.2,6.5,15.5,12.2c4.3,5.7,6.5,12.8,6.5,21.2c0,9.9-3.7,18.4-11,25.5
	c-7.4,7.1-18.8,10.7-34.2,10.7c-13,0-24.7-2.9-35.1-8.6v-20.4c10.6,6,21.8,8.9,33.7,8.9c0.2,0,0.3,0,0.5,0c7.8,0,13.7-1.4,17.8-4.2
	c4.1-2.8,6.1-6.4,6.1-10.8c0-5-2.1-9-6.4-12.1c-4.2-3.1-9.4-5.4-15.5-7.2c-6.1-1.7-12.2-3.6-18.3-5.7c-6.1-2.1-11.2-5.6-15.5-10.5
	c-4.2-4.9-6.4-11.2-6.4-19c0-10.1,3.6-18.7,10.8-25.8c7.2-7.1,18.2-10.6,32.9-10.6c11,0,21.9,2.7,32.6,8v19.4
	c-10.5-4.8-20.5-7.3-29.8-7.3c-16.1,0-24.2,5.2-24.2,15.6C702,1420.8,704.1,1423.6,708.4,1425.9L708.4,1425.9z"/>
<path fill="#FFFFFF" d="M-78.6,1468c0,27-22.2,49.5-49.5,49.5c-0.1,0,0-49.9,0-49.9C-127.6,1468.1-78.6,1467.8-78.6,1468L-78.6,1468
	z"/>
<path fill="#FFFFFF" d="M157.8,1505.8v-80.1c0-7-1.7-12.7-5.1-17c-3.4-4.3-10.1-6.5-20-6.5c-10.7,0-21.6,2.3-32.7,6.8
	c1.9,5.2,2.8,11,2.8,17.5c0,0.2,0,0.5,0,0.7v78.6H80.5v-79.9c0-7.2-1.9-12.8-5.7-17c-3.8-4.1-11.3-6.2-22.5-6.2
	c-8.7,0-17.5,1.2-26.6,3.7v99.4H3.4v-49.2c-9.2,10.7-21.7,18.5-36.4,21.6c-6.3,1.3-12.6,1.7-18.7,1.3c-4.9,32-29,59.2-62.3,66.2
	c-35.2,7.5-69.8-9.7-86.2-39.9h-90.4V1485l61.9-80.9h-60.5v-20.6h89.1v20.3l-61.7,80.6h53.7c-0.1-0.2-0.1-0.5-0.2-0.7
	c-9-43.3,18.5-85.9,61.5-95c13-2.8,25.9-2.2,37.8,1.2c7.6-21,25.4-37.6,48.7-42.6c32.2-6.8,63.9,11.1,75.4,41
	c12.6-4.7,25.6-7.1,38.9-7.1c13.2,0,24,3.1,32.5,9.2c15.3-6.1,30.2-9.2,44.6-9.2c15.4,0,27.4,4,36,12.1c8.6,8.1,12.9,19.3,12.9,33.7
	v78.6L157.8,1505.8L157.8,1505.8z M-45.6,1366.5c-26,0-47,21-47,47c0,2.4,0.2,4.8,0.5,7.2c-10-7.6-22.5-12.2-36-12.2
	c-32.9,0-59.5,26.6-59.5,59.5c0,32.9,26.6,59.5,59.5,59.5s59.5-26.6,59.5-59.5c0-5-0.6-9.9-1.8-14.6c7.2,4.5,15.7,7.1,24.8,7.1
	c26,0,47-21,47-47C1.4,1387.5-19.7,1366.5-45.6,1366.5L-45.6,1366.5z"/>
</svg>
